<svg xmlns="http://www.w3.org/2000/svg" width="760" height="40" viewBox="0 0 760 40" role="img" aria-labelledby="title description">
  <title id="title">Contact</title>
  <desc id="description">Section heading: Contact.</desc>
  <!-- Generated by scripts/build_assets.py. Text is outlined from IBM Plex Mono (SIL OFL 1.1). -->
  <path fill="#8A8A8A" d="M4.1 26.2Q2.3 26.2 1.4 24.9Q0.5 23.7 0.5 21.5Q0.5 19.2 1.4 18Q2.3 16.8 4.1 16.8Q4.8 16.8 5.3 17Q5.9 17.1 6.3 17.5Q6.7 17.8 6.9 18.3Q7.2 18.8 7.3 19.4L5.5 19.8Q5.4 19.5 5.3 19.2Q5.2 19 5.1 18.8Q4.9 18.6 4.6 18.5Q4.4 18.3 4.1 18.3Q3.3 18.3 2.9 19Q2.6 19.6 2.6 20.7V22.3Q2.6 23.3 2.9 24Q3.3 24.6 4.1 24.6Q4.7 24.6 5.1 24.2Q5.4 23.8 5.5 23.1L7.3 23.5Q7.2 24.1 6.9 24.6Q6.7 25.1 6.3 25.4Q5.9 25.8 5.3 26Q4.8 26.2 4.1 26.2ZM14.1 26.2Q12.3 26.2 11.4 24.9Q10.6 23.7 10.6 21.5Q10.6 19.2 11.4 18Q12.3 16.8 14.1 16.8Q15.9 16.8 16.8 18Q17.6 19.2 17.6 21.5Q17.6 23.7 16.8 24.9Q15.9 26.2 14.1 26.2ZM14.1 24.6Q14.9 24.6 15.3 24Q15.6 23.3 15.6 22.2V20.7Q15.6 19.6 15.3 19Q14.9 18.3 14.1 18.3Q13.3 18.3 12.9 19Q12.6 19.6 12.6 20.7V22.3Q12.6 23.3 12.9 24Q13.3 24.6 14.1 24.6ZM23 20H22.9V26H21.2V16.9H23.5L25.6 23H25.7V16.9H27.4V26H25.1ZM35.5 18.5V26H33.5V18.5H30.9V16.9H38.1V18.5ZM46.5 26 45.9 23.8H43.4L42.8 26H40.9L43.3 16.9H46.1L48.5 26ZM44.7 18.8H44.6L43.7 22.2H45.6ZM55.1 26.2Q53.3 26.2 52.4 24.9Q51.5 23.7 51.5 21.5Q51.5 19.2 52.4 18Q53.3 16.8 55.1 16.8Q55.8 16.8 56.3 17Q56.9 17.1 57.3 17.5Q57.7 17.8 57.9 18.3Q58.2 18.8 58.3 19.4L56.5 19.8Q56.4 19.5 56.3 19.2Q56.2 19 56.1 18.8Q55.9 18.6 55.6 18.5Q55.4 18.3 55.1 18.3Q54.3 18.3 53.9 19Q53.6 19.6 53.6 20.7V22.3Q53.6 23.3 53.9 24Q54.3 24.6 55.1 24.6Q55.7 24.6 56.1 24.2Q56.4 23.8 56.5 23.1L58.3 23.5Q58.2 24.1 57.9 24.6Q57.7 25.1 57.3 25.4Q56.9 25.8 56.3 26Q55.8 26.2 55.1 26.2ZM66.1 18.5V26H64.1V18.5H61.5V16.9H68.7V18.5ZM82.5 27.8 86.7 16.1H88.5L84.3 27.8ZM92.7 27.8 96.9 16.1H98.7L94.5 27.8Z"/>
  <path fill="#C9BFA8" d="M113.7 26.2Q111.9 26.2 111 24.9Q110.2 23.7 110.2 21.5Q110.2 19.2 111 18Q111.9 16.8 113.7 16.8Q115.5 16.8 116.4 18Q117.2 19.2 117.2 21.5Q117.2 23.7 116.4 24.9Q115.5 26.2 113.7 26.2ZM113.7 24.6Q114.6 24.6 114.9 24Q115.3 23.4 115.3 22.3V20.6Q115.3 19.5 114.9 18.9Q114.6 18.3 113.7 18.3Q112.8 18.3 112.5 18.9Q112.1 19.5 112.1 20.6V22.3Q112.1 23.4 112.5 24Q112.8 24.6 113.7 24.6ZM113.7 22.2Q113.2 22.2 113.1 22Q112.9 21.9 112.9 21.6V21.3Q112.9 21.1 113.1 20.9Q113.2 20.7 113.7 20.7Q114.2 20.7 114.3 20.9Q114.5 21.1 114.5 21.3V21.6Q114.5 21.9 114.3 22Q114.2 22.2 113.7 22.2ZM124 26.2Q123.1 26.2 122.5 25.9Q121.8 25.6 121.4 25.2Q121 24.7 120.7 24Q120.5 23.4 120.5 22.6Q120.5 21.6 120.8 20.8Q121.1 19.9 121.6 19.2Q122 18.5 122.6 17.9Q123.2 17.3 123.8 16.9H126.5Q125.7 17.5 125 18.1Q124.3 18.6 123.8 19.1Q123.3 19.7 123 20.2Q122.7 20.8 122.5 21.5L122.7 21.5Q122.8 21.3 122.9 21Q123.1 20.8 123.4 20.6Q123.6 20.4 123.9 20.3Q124.3 20.1 124.7 20.1Q125.3 20.1 125.8 20.4Q126.3 20.6 126.6 20.9Q127 21.3 127.2 21.8Q127.4 22.3 127.4 23Q127.4 23.7 127.2 24.3Q126.9 24.8 126.5 25.3Q126 25.7 125.4 25.9Q124.7 26.2 124 26.2ZM123.9 24.6Q124.6 24.6 125 24.3Q125.4 23.9 125.4 23.2V23Q125.4 22.4 125 22Q124.6 21.6 123.9 21.6Q123.3 21.6 122.9 22Q122.5 22.4 122.5 23V23.2Q122.5 23.9 122.9 24.3Q123.2 24.6 123.9 24.6Z"/>
  <line x1="145.8" y1="20.5" x2="742" y2="20.5" stroke="#2A2A2C"/>
  <path d="M753 15.5 l5 5 -5 5 -5 -5 Z" fill="none" stroke="#C9BFA8" stroke-width="1.5"/>
</svg>
