<svg xmlns="http://www.w3.org/2000/svg" width="400" height="40" viewBox="0 0 400 40" role="img" aria-labelledby="title description">
  <title id="title">Selected Work</title>
  <desc id="description">Section heading: Selected Work.</desc>
  <!-- Generated by scripts/build_assets.py. Text is outlined from IBM Plex Mono (SIL OFL 1.1). -->
  <path fill="#8A8A8A" d="M4.3 26.2Q3 26.2 2 25.7Q1.1 25.3 0.5 24.6L1.8 23.1Q2.3 23.8 3 24.1Q3.7 24.4 4.4 24.4Q5.2 24.4 5.6 24Q6.1 23.6 6.1 23Q6.1 22.4 5.7 22.1Q5.4 21.8 4.6 21.7L3.6 21.5Q2.1 21.3 1.5 20.5Q0.9 19.7 0.9 18.5Q0.9 17 1.9 16.2Q2.9 15.3 4.6 15.3Q5.9 15.3 6.8 15.7Q7.7 16.1 8.2 16.7L6.9 18.2Q6.5 17.7 6 17.4Q5.4 17.2 4.7 17.2Q3.1 17.2 3.1 18.4Q3.1 19 3.5 19.2Q3.8 19.5 4.6 19.6L5.7 19.8Q7 20.1 7.7 20.8Q8.3 21.5 8.3 22.8Q8.3 23.5 8.1 24.1Q7.8 24.8 7.3 25.2Q6.8 25.7 6.1 25.9Q5.3 26.2 4.3 26.2ZM12.6 26V15.5H19.3V17.4H14.8V19.8H19.1V21.6H14.8V24.2H19.3V26ZM24.2 26V15.5H26.4V24.2H30.9V26ZM35.4 26V15.5H42.1V17.4H37.7V19.8H41.9V21.6H37.7V24.2H42.1V26ZM50.3 26.2Q48.2 26.2 47.2 24.8Q46.2 23.3 46.2 20.8Q46.2 18.2 47.2 16.8Q48.2 15.3 50.3 15.3Q51.1 15.3 51.8 15.6Q52.4 15.8 52.8 16.2Q53.3 16.6 53.6 17.1Q53.9 17.7 54 18.4L51.9 18.9Q51.9 18.5 51.7 18.2Q51.6 17.9 51.4 17.6Q51.2 17.4 51 17.3Q50.7 17.2 50.3 17.2Q49.4 17.2 49 17.9Q48.6 18.6 48.6 19.9V21.7Q48.6 22.9 49 23.7Q49.4 24.4 50.3 24.4Q51.1 24.4 51.4 23.9Q51.8 23.4 51.9 22.7L54 23.2Q53.9 23.9 53.6 24.4Q53.3 25 52.8 25.4Q52.4 25.8 51.8 26Q51.1 26.2 50.3 26.2ZM62.6 17.4V26H60.4V17.4H57.4V15.5H65.6V17.4ZM69.6 26V15.5H76.3V17.4H71.9V19.8H76.1V21.6H71.9V24.2H76.3V26ZM80.8 15.5H84.1Q86.3 15.5 87.3 16.9Q88.3 18.2 88.3 20.8Q88.3 23.3 87.3 24.6Q86.3 26 84.1 26H80.8ZM84 24.2Q85 24.2 85.5 23.6Q85.9 22.9 85.9 21.7V19.8Q85.9 18.6 85.5 17.9Q85 17.3 84 17.3H83V24.2ZM103.4 26 102.8 15.5H104.7L105 21.8L105.1 23.8H105.2L106.1 17.8H108.2L109.1 23.8H109.2L109.3 21.9L109.6 15.5H111.4L110.8 26H107.9L107.2 20.2H107L106.3 26ZM118.5 26.2Q116.4 26.2 115.4 24.8Q114.4 23.3 114.4 20.8Q114.4 18.2 115.4 16.8Q116.4 15.3 118.5 15.3Q120.6 15.3 121.6 16.8Q122.6 18.2 122.6 20.8Q122.6 23.3 121.6 24.8Q120.6 26.2 118.5 26.2ZM118.5 24.4Q119.5 24.4 119.8 23.7Q120.2 22.9 120.2 21.7V19.9Q120.2 18.6 119.8 17.9Q119.5 17.2 118.5 17.2Q117.5 17.2 117.2 17.9Q116.8 18.6 116.8 19.9V21.7Q116.8 22.9 117.2 23.7Q117.5 24.4 118.5 24.4ZM128.8 26H126.5V15.5H130.6Q131.4 15.5 132 15.8Q132.6 16 133 16.4Q133.4 16.9 133.6 17.5Q133.8 18.1 133.8 18.9Q133.8 20 133.3 20.8Q132.8 21.6 132 21.8L134 26H131.6L129.8 22.1H128.8ZM130.1 20.4Q130.8 20.4 131.2 20.1Q131.5 19.8 131.5 19.1V18.6Q131.5 17.9 131.2 17.6Q130.8 17.3 130.1 17.3H128.8V20.4ZM141 21.6 140.1 22.9V26H137.8V15.5H140.1V19.9H140.2L141.3 18.2L143.2 15.5H145.7L142.6 20L145.8 26H143.3ZM160.7 28.1 165.5 14.6H167.5L162.7 28.1ZM172.1 28.1 176.9 14.6H178.9L174.1 28.1Z"/>
  <path fill="#C9BFA8" d="M195.9 26.2Q193.8 26.2 192.8 24.8Q191.8 23.3 191.8 20.8Q191.8 18.2 192.8 16.8Q193.8 15.3 195.9 15.3Q198 15.3 199 16.8Q200 18.2 200 20.8Q200 23.3 199 24.8Q198 26.2 195.9 26.2ZM195.9 24.4Q196.9 24.4 197.3 23.7Q197.7 23 197.7 21.7V19.8Q197.7 18.5 197.3 17.8Q196.9 17.1 195.9 17.1Q194.9 17.1 194.5 17.8Q194.1 18.5 194.1 19.8V21.7Q194.1 23 194.5 23.7Q194.9 24.4 195.9 24.4ZM195.9 21.6Q195.4 21.6 195.2 21.4Q195 21.2 195 20.9V20.6Q195 20.3 195.2 20.1Q195.4 19.9 195.9 19.9Q196.4 19.9 196.6 20.1Q196.8 20.3 196.8 20.6V20.9Q196.8 21.2 196.6 21.4Q196.4 21.6 195.9 21.6ZM206.9 19.7Q207.8 19.7 208.2 19.3Q208.6 19 208.6 18.5V18.4Q208.6 17.9 208.2 17.5Q207.8 17.2 207.1 17.2Q206.4 17.2 205.9 17.5Q205.3 17.8 204.9 18.4L203.5 17.1Q203.8 16.7 204.2 16.4Q204.5 16.1 205 15.8Q205.4 15.6 205.9 15.5Q206.5 15.3 207.2 15.3Q208 15.3 208.7 15.5Q209.4 15.7 209.9 16.1Q210.4 16.5 210.7 17Q210.9 17.5 210.9 18.1Q210.9 18.6 210.8 19Q210.6 19.4 210.3 19.7Q210 20 209.7 20.2Q209.3 20.4 208.9 20.5V20.6Q209.9 20.7 210.5 21.4Q211.1 22 211.1 23.1Q211.1 23.8 210.8 24.4Q210.5 24.9 210 25.3Q209.5 25.7 208.7 26Q208 26.2 207 26.2Q206.2 26.2 205.6 26Q205 25.9 204.6 25.6Q204.1 25.3 203.8 24.9Q203.4 24.6 203.2 24.2L204.8 22.9Q205.2 23.5 205.7 23.9Q206.2 24.4 207.1 24.4Q207.9 24.4 208.3 24Q208.8 23.6 208.8 22.9V22.8Q208.8 22.2 208.3 21.9Q207.8 21.5 206.9 21.5H205.9V19.7Z"/>
  <line x1="229.8" y1="20.5" x2="382" y2="20.5" stroke="#2A2A2C"/>
  <path d="M393 15.5 l5 5 -5 5 -5 -5 Z" fill="none" stroke="#C9BFA8" stroke-width="1.5"/>
</svg>
